<?xml version="1.0" encoding="UTF-8" standalone="no"?>
<!DOCTYPE svg PUBLIC "-//W3C//DTD SVG 1.1//EN" "http://www.w3.org/Graphics/SVG/1.1/DTD/svg11.dtd">
<svg width="100%" height="100%" viewBox="0 0 1607 316" version="1.1" xmlns="http://www.w3.org/2000/svg" xmlns:xlink="http://www.w3.org/1999/xlink" xml:space="preserve" xmlns:serif="http://www.serif.com/" style="fill-rule:evenodd;clip-rule:evenodd;stroke-linejoin:round;stroke-miterlimit:2;">
    <g transform="matrix(3.55774,0,0,3.55774,-1675,-730.15)">
        <clipPath id="_clip1">
            <path d="M542.317,245.244C541.959,244.219 541.459,243.307 540.816,242.51C540.173,241.712 539.432,241.045 538.594,240.508C537.756,239.971 536.852,239.564 535.884,239.287C534.916,239.011 533.927,238.872 532.918,238.872C531.485,238.872 530.135,239.145 528.865,239.69C527.595,240.235 526.489,240.988 525.545,241.948C524.601,242.909 523.856,244.044 523.311,245.354C522.766,246.664 522.493,248.084 522.493,249.614C522.493,251.144 522.766,252.564 523.311,253.875C523.856,255.185 524.601,256.32 525.545,257.28C526.489,258.241 527.595,258.994 528.865,259.539C530.135,260.084 531.485,260.357 532.918,260.357C533.927,260.357 534.916,260.222 535.884,259.954C536.852,259.685 537.752,259.282 538.582,258.745C539.412,258.208 540.148,257.545 540.791,256.756C541.434,255.966 541.927,255.051 542.268,254.009L550.203,254.009C549.877,255.441 549.393,256.756 548.75,257.952C548.107,259.148 547.342,260.226 546.455,261.187C545.568,262.147 544.588,262.989 543.513,263.714C542.439,264.438 541.316,265.044 540.144,265.532C538.972,266.021 537.772,266.387 536.543,266.631C535.314,266.875 534.106,266.997 532.918,266.997C531.241,266.997 529.63,266.79 528.084,266.375C526.538,265.96 525.093,265.378 523.75,264.629C522.407,263.88 521.187,262.977 520.088,261.919C518.989,260.861 518.045,259.685 517.256,258.391C516.467,257.097 515.856,255.71 515.425,254.229C514.994,252.748 514.778,251.201 514.778,249.59C514.778,247.979 514.994,246.432 515.425,244.951C515.856,243.47 516.467,242.083 517.256,240.789C518.045,239.495 518.989,238.323 520.088,237.273C521.187,236.223 522.407,235.32 523.75,234.563C525.093,233.806 526.538,233.224 528.084,232.818C529.63,232.411 531.241,232.207 532.918,232.207C534.09,232.207 535.29,232.325 536.519,232.561C537.748,232.797 538.952,233.151 540.132,233.623C541.312,234.095 542.443,234.693 543.526,235.418C544.608,236.142 545.593,236.984 546.48,237.945C547.367,238.905 548.132,239.995 548.775,241.216C549.418,242.437 549.894,243.788 550.203,245.269L542.317,245.244ZM554.207,249.59C554.207,247.979 554.422,246.432 554.854,244.951C555.285,243.47 555.895,242.083 556.685,240.789C557.474,239.495 558.418,238.323 559.517,237.273C560.615,236.223 561.836,235.32 563.179,234.563C564.522,233.806 565.966,233.224 567.512,232.818C569.059,232.411 570.67,232.207 572.346,232.207C574.007,232.207 575.61,232.411 577.156,232.818C578.702,233.224 580.151,233.806 581.502,234.563C582.853,235.32 584.081,236.223 585.188,237.273C586.295,238.323 587.243,239.495 588.032,240.789C588.822,242.083 589.432,243.47 589.864,244.951C590.295,246.432 590.51,247.979 590.51,249.59C590.51,251.201 590.295,252.748 589.864,254.229C589.432,255.71 588.822,257.097 588.032,258.391C587.243,259.685 586.295,260.861 585.188,261.919C584.081,262.977 582.853,263.88 581.502,264.629C580.151,265.378 578.702,265.96 577.156,266.375C575.61,266.79 574.007,266.997 572.346,266.997C570.67,266.997 569.059,266.79 567.512,266.375C565.966,265.96 564.522,265.378 563.179,264.629C561.836,263.88 560.615,262.977 559.517,261.919C558.418,260.861 557.474,259.685 556.685,258.391C555.895,257.097 555.285,255.71 554.854,254.229C554.422,252.748 554.207,251.201 554.207,249.59ZM561.922,249.614C561.922,251.144 562.194,252.564 562.739,253.875C563.285,255.185 564.029,256.32 564.973,257.28C565.917,258.241 567.024,258.994 568.294,259.539C569.563,260.084 570.914,260.357 572.346,260.357C573.811,260.357 575.178,260.084 576.448,259.539C577.718,258.994 578.82,258.241 579.756,257.28C580.692,256.32 581.433,255.185 581.978,253.875C582.523,252.564 582.796,251.144 582.796,249.614C582.796,248.084 582.523,246.664 581.978,245.354C581.433,244.044 580.692,242.909 579.756,241.948C578.82,240.988 577.718,240.235 576.448,239.69C575.178,239.145 573.811,238.872 572.346,238.872C570.914,238.872 569.563,239.145 568.294,239.69C567.024,240.235 565.917,240.988 564.973,241.948C564.029,242.909 563.285,244.044 562.739,245.354C562.194,246.664 561.922,248.084 561.922,249.614ZM617.219,233.037L624.959,233.037L624.959,253.423C624.959,255.392 624.613,257.207 623.921,258.867C623.229,260.528 622.249,261.964 620.979,263.176C619.71,264.389 618.18,265.333 616.389,266.008C614.599,266.684 612.597,267.022 610.384,267.022C608.333,267.022 606.416,266.708 604.634,266.082C602.852,265.455 601.306,264.552 599.995,263.372C598.685,262.192 597.656,260.764 596.907,259.087C596.158,257.411 595.784,255.523 595.784,253.423L595.784,233.037L603.499,233.037L603.499,253.447C603.499,254.44 603.649,255.364 603.95,256.218C604.252,257.073 604.691,257.809 605.269,258.428C605.847,259.046 606.563,259.535 607.417,259.893C608.272,260.251 609.26,260.43 610.384,260.43C611.474,260.43 612.442,260.255 613.289,259.905C614.135,259.555 614.851,259.067 615.437,258.44C616.023,257.813 616.467,257.077 616.768,256.231C617.069,255.384 617.219,254.465 617.219,253.472L617.219,233.037ZM644.148,255.425L639.217,255.425L639.217,266.24L631.477,266.24L631.477,233.037L646.028,233.037C647.77,233.037 649.373,233.31 650.838,233.855C652.302,234.4 653.568,235.165 654.634,236.15C655.7,237.135 656.53,238.315 657.124,239.69C657.718,241.065 658.015,242.591 658.015,244.268C658.015,245.44 657.869,246.542 657.576,247.576C657.283,248.609 656.868,249.549 656.331,250.396C655.794,251.242 655.143,251.991 654.378,252.642C653.613,253.293 652.758,253.838 651.814,254.278L658.821,266.24L649.934,266.24L644.148,255.425ZM645.711,248.784C646.345,248.784 646.94,248.674 647.493,248.455C648.046,248.235 648.531,247.93 648.946,247.539C649.361,247.149 649.686,246.677 649.922,246.123C650.158,245.57 650.276,244.951 650.276,244.268C650.276,243.6 650.158,242.986 649.922,242.424C649.686,241.863 649.361,241.379 648.946,240.972C648.531,240.565 648.046,240.248 647.493,240.02C646.94,239.792 646.345,239.678 645.711,239.678L639.217,239.678L639.217,248.784L645.711,248.784ZM669.417,255.913C669.417,257.28 669.978,258.371 671.101,259.185C672.224,259.999 673.811,260.405 675.862,260.405C676.985,260.405 677.937,260.32 678.718,260.149C679.5,259.978 680.135,259.738 680.623,259.429C681.111,259.12 681.469,258.741 681.697,258.294C681.925,257.846 682.039,257.337 682.039,256.768C682.039,255.97 681.852,255.327 681.477,254.839C681.103,254.351 680.566,253.944 679.866,253.618C679.166,253.293 678.316,253 677.315,252.739C676.314,252.479 675.178,252.17 673.909,251.812C673.29,251.649 672.586,251.47 671.797,251.275C671.008,251.079 670.206,250.835 669.392,250.542C668.579,250.249 667.785,249.895 667.012,249.48C666.239,249.065 665.547,248.556 664.937,247.954C664.326,247.352 663.838,246.64 663.472,245.818C663.106,244.996 662.923,244.032 662.923,242.925C662.923,241.265 663.191,239.771 663.728,238.445C664.265,237.119 665.091,235.991 666.206,235.064C667.321,234.136 668.737,233.428 670.454,232.94C672.171,232.451 674.218,232.207 676.594,232.207C678.548,232.207 680.277,232.455 681.782,232.952C683.288,233.448 684.558,234.152 685.591,235.064C686.625,235.975 687.41,237.078 687.947,238.372C688.484,239.666 688.753,241.11 688.753,242.705L680.989,242.705C680.989,242.217 680.899,241.741 680.72,241.277C680.541,240.813 680.248,240.406 679.842,240.056C679.435,239.706 678.91,239.426 678.267,239.214C677.624,239.002 676.83,238.897 675.886,238.897C674.845,238.897 673.986,238.986 673.311,239.165C672.635,239.344 672.102,239.588 671.712,239.898C671.321,240.207 671.048,240.557 670.894,240.947C670.739,241.338 670.662,241.737 670.662,242.144C670.662,242.713 670.845,243.206 671.211,243.621C671.577,244.036 672.078,244.394 672.713,244.695C673.347,244.996 674.096,245.252 674.959,245.464C675.821,245.676 676.757,245.871 677.766,246.05C678.922,246.327 680.025,246.62 681.074,246.929C682.124,247.238 683.097,247.596 683.992,248.003C684.887,248.41 685.697,248.874 686.421,249.395C687.145,249.916 687.764,250.53 688.277,251.238C688.789,251.946 689.184,252.756 689.461,253.667C689.737,254.579 689.876,255.62 689.876,256.792C689.876,258.469 689.522,259.946 688.814,261.223C688.106,262.501 687.121,263.575 685.86,264.446C684.598,265.317 683.101,265.972 681.367,266.411C679.634,266.851 677.75,267.07 675.716,267.07C673.177,267.07 671.02,266.741 669.246,266.082C667.472,265.423 666.027,264.564 664.912,263.506C663.797,262.448 662.984,261.256 662.471,259.929C661.958,258.603 661.702,257.264 661.702,255.913L669.417,255.913ZM695.467,233.037L718.855,233.037L718.855,239.702L703.206,239.702L703.206,246.489L716.634,246.489L716.634,253.13L703.206,253.13L703.206,259.6L719.075,259.6L719.075,266.24L695.467,266.24L695.467,233.037ZM732.185,246.343L738.777,246.343C739.184,246.343 739.583,246.262 739.973,246.099C740.364,245.936 740.714,245.704 741.023,245.403C741.332,245.102 741.585,244.74 741.78,244.317C741.975,243.893 742.073,243.421 742.073,242.901C742.073,242.396 741.979,241.928 741.792,241.497C741.605,241.065 741.357,240.695 741.048,240.386C740.738,240.077 740.388,239.837 739.998,239.666C739.607,239.495 739.208,239.409 738.802,239.409L732.185,239.409L732.185,246.343ZM739.851,259.868C740.258,259.868 740.694,259.791 741.157,259.636C741.621,259.482 742.049,259.246 742.439,258.928C742.83,258.611 743.155,258.208 743.416,257.72C743.676,257.232 743.806,256.654 743.806,255.987C743.806,255.401 743.701,254.876 743.489,254.412C743.277,253.948 742.993,253.549 742.635,253.216C742.276,252.882 741.857,252.626 741.377,252.446C740.897,252.267 740.388,252.178 739.851,252.178L732.185,252.178L732.185,259.868L739.851,259.868ZM724.47,266.24L724.47,233.037L739.241,233.037C740.869,233.037 742.342,233.245 743.66,233.66C744.978,234.075 746.105,234.677 747.041,235.466C747.977,236.256 748.697,237.224 749.202,238.372C749.706,239.519 749.959,240.834 749.959,242.315C749.959,242.998 749.849,243.674 749.629,244.341C749.409,245.008 749.116,245.623 748.75,246.184C748.384,246.746 747.957,247.242 747.468,247.674C746.98,248.105 746.468,248.426 745.93,248.638C746.728,248.915 747.481,249.301 748.189,249.798C748.897,250.294 749.519,250.876 750.056,251.543C750.593,252.21 751.017,252.951 751.326,253.765C751.635,254.579 751.79,255.433 751.79,256.328C751.79,258.119 751.464,259.64 750.813,260.894C750.162,262.147 749.312,263.168 748.262,263.958C747.212,264.747 746.02,265.325 744.685,265.691C743.351,266.057 742,266.24 740.633,266.24L724.47,266.24ZM757.039,233.037L780.427,233.037L780.427,239.702L764.778,239.702L764.778,246.489L778.206,246.489L778.206,253.13L764.778,253.13L764.778,259.6L780.647,259.6L780.647,266.24L757.039,266.24L757.039,233.037ZM798.714,255.425L793.782,255.425L793.782,266.24L786.043,266.24L786.043,233.037L800.593,233.037C802.335,233.037 803.938,233.31 805.403,233.855C806.868,234.4 808.133,235.165 809.199,236.15C810.266,237.135 811.096,238.315 811.69,239.69C812.284,241.065 812.581,242.591 812.581,244.268C812.581,245.44 812.434,246.542 812.141,247.576C811.848,248.609 811.433,249.549 810.896,250.396C810.359,251.242 809.708,251.991 808.943,252.642C808.178,253.293 807.324,253.838 806.38,254.278L813.386,266.24L804.5,266.24L798.714,255.425ZM800.276,248.784C800.911,248.784 801.505,248.674 802.058,248.455C802.612,248.235 803.096,247.93 803.511,247.539C803.926,247.149 804.252,246.677 804.488,246.123C804.724,245.57 804.842,244.951 804.842,244.268C804.842,243.6 804.724,242.986 804.488,242.424C804.252,241.863 803.926,241.379 803.511,240.972C803.096,240.565 802.612,240.248 802.058,240.02C801.505,239.792 800.911,239.678 800.276,239.678L793.782,239.678L793.782,248.784L800.276,248.784ZM824.91,239.678L815.633,239.678L815.633,233.037L841.902,233.037L841.902,239.678L832.625,239.678L832.625,266.24L824.91,266.24L824.91,239.678ZM854.06,261.138L865.876,261.138L869.538,266.24L878.522,266.24L854.597,233.013L846.541,233.013L846.443,266.24L854.06,266.24L854.06,261.138ZM861.872,255.596L854.06,255.596L854.06,243.999L854.231,243.999L855.183,246.294L861.872,255.596Z" clip-rule="nonzero"/>
        </clipPath>
        <g clip-path="url(#_clip1)">
            <g transform="matrix(50,0,0,50,843.025,266.24)">
                <path d="M0.221,-0.102L0.457,-0.102L0.53,-0L0.71,-0L0.231,-0.665L0.07,-0.665L0.068,-0L0.221,-0L0.221,-0.102ZM0.377,-0.213L0.221,-0.213L0.221,-0.445L0.224,-0.445L0.243,-0.399L0.377,-0.213Z" style="fill:rgb(68,112,171);fill-rule:nonzero;"/>
            </g>
            <text x="512.532px" y="266.24px" style="font-family:'CodecColdTrial-ExtraBold', 'Codec Cold Trial';font-weight:800;font-size:50px;fill:rgb(68,112,171);">C<tspan x="551.961px " y="266.24px ">O</tspan>URSEBERT</text>
            <g transform="matrix(0.281077,0,0,0.281077,426.801,205.229)">
                <rect x="233.714" y="30.578" width="1452.29" height="246.422" style="fill:rgb(79,118,172);"/>
            </g>
        </g>
    </g>
</svg>
