<?xml version="1.0" standalone="no"?>
<!DOCTYPE svg PUBLIC "-//W3C//DTD SVG 20010904//EN"
 "http://www.w3.org/TR/2001/REC-SVG-20010904/DTD/svg10.dtd">
<svg version="1.0" xmlns="http://www.w3.org/2000/svg"
 width="471.000000pt" height="600.000000pt" viewBox="0 0 471.000000 600.000000"
 preserveAspectRatio="xMidYMid meet">
<metadata>
Created by potrace 1.16, written by Peter Selinger 2001-2019
</metadata>
<g transform="translate(0.000000,600.000000) scale(0.100000,-0.100000)"
fill="#000000" stroke="none">
<path d="M1320 5994 c-651 -48 -1184 -529 -1295 -1168 -13 -75 -15 -227 -15
-1020 1 -547 5 -974 11 -1036 5 -58 12 -143 14 -190 2 -47 7 -105 10 -130 9
-66 56 -273 65 -285 4 -5 17 -48 30 -95 27 -105 78 -245 118 -325 16 -33 33
-71 37 -85 11 -37 63 -138 75 -145 5 -3 27 -43 49 -89 22 -46 53 -98 70 -117
17 -18 31 -37 31 -42 0 -5 14 -28 32 -51 31 -40 50 -61 213 -239 87 -95 256
-243 323 -283 23 -14 42 -23 42 -21 0 3 -44 40 -97 83 -207 165 -448 425 -543
584 -18 30 -46 75 -62 100 -47 71 -174 334 -199 408 -12 37 -32 93 -46 125
-19 47 -93 325 -93 352 0 3 4 3 10 0 6 -4 7 1 3 11 -5 13 -3 15 7 9 8 -5 11
-4 6 3 -4 6 -13 9 -20 6 -10 -4 -14 2 -12 21 0 17 6 25 16 23 8 -2 15 -8 15
-15 0 -6 4 -15 9 -20 6 -5 6 -2 1 6 -6 11 -4 13 10 7 15 -5 16 -4 6 8 -10 11
-9 16 1 23 10 5 12 18 7 38 -5 21 -7 24 -9 10 -1 -11 -2 -27 -1 -35 2 -13 1
-13 -9 0 -26 36 -30 49 -18 56 6 4 8 3 4 -4 -3 -6 -2 -13 4 -17 5 -3 10 1 10
9 0 9 7 16 15 16 20 0 19 16 -3 30 -15 10 -15 11 0 6 9 -3 19 0 22 7 3 7 5 6
5 -3 -2 -30 1 -41 10 -36 5 3 7 15 4 25 -3 10 0 22 6 25 7 5 8 1 4 -11 -6 -17
-5 -17 14 0 11 9 23 14 26 10 4 -3 7 -2 7 3 0 6 -4 14 -10 20 -6 6 -2 10 12
11 11 1 26 7 32 14 8 9 7 10 -6 6 -12 -4 -18 1 -21 16 l-4 22 -2 -22 c0 -13
-5 -23 -11 -23 -19 0 -10 27 17 51 15 13 22 17 15 7 -16 -20 4 -37 21 -18 9
10 9 11 -2 5 -11 -6 -13 -4 -8 7 3 9 3 19 -1 22 -11 12 -10 35 3 46 10 8 15 8
21 -1 4 -7 3 -9 -4 -5 -6 3 -13 2 -17 -4 -3 -5 1 -10 9 -10 8 0 18 -5 22 -12
5 -7 2 -9 -9 -5 -11 4 -14 2 -10 -9 8 -21 28 -1 31 30 1 15 -3 26 -11 26 -6 0
-1 6 13 13 16 8 24 20 22 33 -2 10 1 15 5 9 11 -14 33 -17 31 -4 -2 6 3 14 11
17 10 3 12 0 8 -12 -4 -9 -3 -15 2 -12 5 3 11 19 15 36 3 18 10 29 16 25 5 -3
10 -1 10 5 0 6 4 9 9 5 5 -3 12 -1 15 4 3 5 -11 7 -32 4 -20 -3 -34 -2 -30 3
4 4 2 14 -4 23 -8 9 -2 8 12 -4 l24 -20 -17 27 c-11 17 -13 29 -6 33 7 5 6 12
-3 23 -10 13 -8 13 9 -1 20 -18 22 -18 42 0 12 9 21 21 21 26 0 5 -7 4 -15 -3
-12 -10 -15 -10 -15 0 0 7 -6 10 -13 7 -8 -3 -14 0 -14 7 0 8 9 11 23 8 19 -3
22 -1 17 19 -4 15 -3 20 6 15 6 -4 9 -11 6 -16 -3 -4 2 -13 10 -20 12 -10 15
-10 15 0 0 8 5 9 13 4 7 -5 4 0 -8 10 -20 19 -20 19 13 13 19 -4 32 -2 32 4 0
6 -4 8 -8 5 -4 -2 -13 -1 -20 3 -8 4 -5 11 9 20 16 9 19 9 14 0 -5 -8 -4 -10
3 -5 6 4 22 2 34 -5 19 -9 21 -9 10 2 -17 18 -15 32 4 25 8 -3 12 -2 9 4 -3 6
2 10 11 10 10 0 14 3 10 7 -10 11 -36 12 -36 2 0 -5 -7 -9 -16 -9 -9 0 -12 -5
-8 -12 4 -6 3 -8 -4 -4 -6 4 -8 17 -3 34 4 15 6 33 4 40 -3 6 0 12 6 12 5 0 8
-9 6 -20 -4 -23 10 -27 19 -5 3 8 12 12 21 9 8 -3 13 -10 10 -14 -3 -4 2 -10
10 -14 8 -3 17 0 21 6 4 6 3 8 -4 4 -6 -3 -13 3 -17 14 -3 11 -11 20 -16 20
-6 0 -7 5 -4 10 4 6 11 7 17 4 7 -5 9 0 6 13 -4 15 0 19 16 19 15 -1 21 5 21
21 0 12 3 24 7 28 4 4 4 14 1 23 -4 10 -2 13 6 8 6 -4 9 -16 6 -26 -3 -10 0
-22 6 -26 8 -5 10 -2 6 8 -8 23 4 31 18 11 11 -14 12 -14 18 1 4 9 3 15 -1 13
-4 -3 -13 1 -20 9 -11 12 -10 14 3 14 8 0 15 5 15 12 0 6 3 9 6 5 9 -9 38 23
41 46 3 17 1 18 -12 7 -11 -9 -13 -15 -5 -20 8 -5 6 -9 -5 -14 -24 -9 -32 -7
-15 4 11 7 11 10 2 10 -7 0 -11 4 -7 9 3 5 0 13 -6 17 -8 5 -10 1 -7 -13 3
-11 -1 -28 -9 -39 -13 -18 -14 -18 -19 1 -6 24 -6 36 1 33 2 -2 10 6 18 16 10
13 16 16 21 7 4 -6 12 -9 17 -5 6 3 -5 20 -23 36 -185 170 -265 268 -341 415
-107 207 -137 353 -137 662 0 223 5 278 41 414 114 438 480 786 933 887 100
22 274 29 741 31 293 0 507 5 518 11 10 5 16 17 15 26 -2 11 3 17 14 16 10 -1
17 1 16 5 -2 19 3 31 11 26 5 -3 12 -1 15 4 4 5 -1 8 -10 7 -8 -1 -20 -9 -25
-17 -7 -11 -9 -11 -9 3 0 12 -5 16 -17 11 -12 -3 -10 0 5 11 12 10 20 21 17
26 -3 5 0 12 6 16 9 5 10 0 7 -14 -6 -20 10 -31 24 -17 7 8 -15 55 -25 55 -5
0 -5 5 -1 11 5 8 9 8 14 -1 6 -9 12 -10 26 -1 12 6 14 11 5 11 -11 0 -11 3 -1
15 7 8 18 15 24 15 6 0 4 -5 -4 -10 -12 -7 -12 -12 -2 -22 9 -9 12 -9 12 0 0
7 5 12 11 12 5 0 7 -6 3 -12 -4 -8 -3 -10 2 -5 5 5 9 14 9 20 0 7 5 12 12 12
6 0 14 3 18 7 7 6 -1258 8 -1345 2z"/>
<path d="M882 5087 c-40 -42 -24 -105 32 -127 42 -16 913 -14 919 3 4 10 6 10
6 0 1 -19 29 -15 34 5 4 16 5 16 6 0 0 -10 9 -18 19 -18 9 0 13 4 7 8 -14 10
-18 42 -5 42 6 0 9 -4 6 -9 -3 -5 2 -15 11 -22 14 -12 15 -11 9 7 -8 26 2 56
17 47 5 -3 7 -2 4 4 -3 5 3 22 14 39 10 16 19 32 19 36 0 4 -242 8 -538 8
l-538 0 -22 -23z"/>
<path d="M935 4513 c-58 -14 -82 -79 -46 -124 19 -24 19 -24 280 -26 201 -2
261 0 261 10 0 9 3 8 9 -2 6 -9 11 -10 15 -2 4 6 12 11 17 11 6 0 7 -4 4 -10
-3 -5 1 -10 9 -10 8 0 18 5 21 10 5 7 11 8 19 1 6 -5 17 -7 23 -3 14 9 -2 52
-19 52 -9 0 -9 3 2 10 9 6 17 5 22 -3 5 -8 13 -5 27 10 16 17 17 22 6 27 -8 3
-14 0 -12 -6 1 -6 -3 -12 -10 -15 -7 -3 -9 3 -6 16 3 12 1 21 -6 21 -6 0 -10
3 -10 8 5 31 0 32 -293 31 -161 -1 -302 -3 -313 -6z"/>
<path d="M890 3891 c-36 -35 -38 -61 -7 -96 17 -20 35 -28 71 -32 40 -5 47 -3
41 8 -7 11 -6 12 6 2 22 -18 118 -12 111 6 -4 10 -1 12 8 6 9 -5 11 -4 6 4 -6
9 -11 9 -24 -1 -13 -11 -15 -10 -9 11 4 17 1 28 -11 37 -16 12 -15 13 2 10 11
-1 22 -9 25 -17 5 -12 51 -23 51 -12 0 2 -10 8 -22 13 l-23 9 23 0 c22 1 31
25 12 36 -6 4 -9 1 -8 -6 6 -24 -19 -19 -31 7 -11 24 -10 26 3 15 8 -7 20 -10
26 -6 6 4 22 -2 34 -14 17 -16 23 -18 23 -7 0 8 -4 13 -8 11 -4 -3 -9 1 -12 9
-6 16 8 24 40 21 12 -1 20 2 17 6 -2 4 -74 8 -159 8 l-156 2 -29 -30z"/>
<path d="M4345 1543 c-114 -213 -198 -331 -375 -524 -256 -278 -703 -595
-1166 -827 -155 -78 -373 -172 -397 -172 -9 0 -18 -4 -21 -9 -9 -13 58 4 149
39 86 33 401 187 422 207 7 6 47 28 89 47 42 20 113 61 157 90 45 29 96 61
114 70 17 9 49 32 70 51 21 19 42 35 46 35 12 0 86 53 127 90 19 18 53 43 74
57 97 62 304 251 373 340 18 23 49 60 70 80 48 48 166 206 190 253 10 19 32
58 50 86 37 57 107 204 100 210 -2 2 -34 -53 -72 -123z"/>
<path d="M1195 614 c17 -14 55 -41 85 -61 30 -20 57 -39 60 -43 7 -10 160
-105 183 -113 9 -3 17 -11 17 -16 0 -5 53 -35 118 -66 64 -32 119 -61 122 -65
8 -12 330 -167 405 -195 82 -31 158 -55 162 -52 2 3 -145 65 -222 93 -60 23
-298 141 -395 197 -47 27 -112 64 -145 82 -55 29 -223 140 -350 229 -58 41
-84 47 -40 10z"/>
</g>
</svg>
